<svg xmlns="http://www.w3.org/2000/svg" xmlns:xlink="http://www.w3.org/1999/xlink" width="243" height="243"><defs><path id="a" d="M.233.19h67.985v55.86H.233z"/><path id="c" d="M0 .374h21.703v27.184H0z"/><path id="e" d="M.39.146h21.213V27.61H.389z"/><path id="g" d="M.469.39h21.043v22.65H.469z"/><path id="i" d="M.287.178h3.664v18.614H.287z"/><path id="k" d="M.277.033h2.61V18H.278z"/></defs><g fill="none" fill-rule="evenodd"><g transform="rotate(15 -342.875 409.717)"><mask id="b" fill="#fff"><use xlink:href="#a"/></mask><path fill="#EB3732" d="M47.056 8.704C46.223 4.71 41.66.19 35.327.19c-7.74 0-13.135 2.76-14.543 8.744s-5.16 12.658-11.259 16.8S-3.61 36.78 2.723 47.826c6.333 11.047 13.37 7.595 17.123 6.674s9.148-4.372 19.235-2.531 10.555 6.674 20.876 2.301c10.321-4.372 10.254-21.097 3.753-25.46-9.383-6.298-14.543-9.98-16.654-20.106" mask="url(#b)"/></g><g transform="rotate(15 -316.715 343.68)"><mask id="d" fill="#fff"><use xlink:href="#c"/></mask><path fill="#EB3732" d="M19.278 8.81c-.244-.526-8.185-11.963-14.7-7.337s-6.514 20.256 2.84 24.722c9.355 4.466 18.876-2.233 11.86-17.385" mask="url(#d)"/></g><g transform="rotate(15 -218.542 448.818)"><mask id="f" fill="#fff"><use xlink:href="#e"/></mask><path fill="#EB3732" d="M21.45 15.012c.01-.647 1.67-12.724-6.18-14.452C7.417-1.167.736 2.445.402 12.5c-.333 10.052 5.68 15.427 11.693 15.096 6.014-.331 9.295-8.666 9.355-12.584" mask="url(#f)"/></g><path fill="#EB3732" d="M141.092 85.526c7.72-.384 11.982 5.374 13.173 9.732 1.19 4.359-3.33 13.101-8.234 13.806-4.905.706-12.665-.796-13.562-10.99-.142-1.618.902-12.165 8.623-12.548"/><g transform="rotate(15 -362.504 634.25)"><mask id="h" fill="#fff"><use xlink:href="#g"/></mask><path fill="#EB3732" d="M14.96.495c9.075 1.226 6.584 11.028 4.982 14.551s-2.847 8.425-11.032 7.965C.726 22.551.192 17.957.548 11.983.723 9.041 5.886-.73 14.96.495" mask="url(#h)"/></g><circle cx="121.5" cy="121.5" r="119.5" stroke="#EB3732" stroke-width="4"/><g><path fill="#3F4ECD" d="M28.03 93.768c-.696 2.442.85 4.537 3.38 5.293s4.934-.156 5.631-2.598c.704-2.465-.856-4.511-3.386-5.268s-4.92.108-5.625 2.573m10.722 3.02c-.478 1.677-1.547 2.856-2.992 3.521l6.24 1.866-.521 1.825L25 99.072l.507-1.776 1.614.483c-.885-1.389-1.206-3.01-.728-4.688.958-3.353 4.4-4.786 7.797-3.77s5.52 4.114 4.562 7.467M41.263 88 25 80.779 25.738 79 42 86.221zm3.665-13.008-1.437-.833c.024.014-1.38 1.177-2.295 2.841-.954 1.736-.555 3.065.488 3.669 1.205.698 2.386.16 3.145-1.22.732-1.331.774-2.906.099-4.457m3.13 1.75-1.25-.724c.496 1.542.29 3.084-.47 4.463-1.215 2.211-3.375 3.25-5.622 1.948-2.224-1.289-2.51-3.712-1.124-6.233.941-1.712 2.37-2.922 2.347-2.936l-1.25-.724c-1.808-1.047-3.368-.32-4.362 1.487-.98 1.783-.2 3.584-.176 3.597l-1.756.582c-.013.024-1.079-2.537.346-5.13 1.583-2.877 3.996-3.987 7.03-2.229L49 75.031l-.942 1.712zM54.75 73l-2.713-4.447L39 64.377l1.313-1.722 10.4 3.484-5.845-9.459 1.28-1.68L56 71.361zm6.892-29.144c-2.014 1.644-1.95 4.398-.28 6.628 1.671 2.229 4.216 2.957 6.23 1.313 2.034-1.661 1.93-4.382.259-6.611s-4.175-2.99-6.21-1.33m7.191 9.29c-1.383 1.129-2.967 1.464-4.565 1.126l4.121 5.499L66.883 61 56 46.478l1.465-1.196 1.065 1.423c.075-1.738.757-3.322 2.14-4.451 2.767-2.259 6.483-1.324 8.727 1.67 2.243 2.993 2.202 6.963-.565 9.221M75.363 48 66 32.021 67.637 31 77 46.979zm11.27-9.763-.712-1.51c.011.024-1.832.129-3.56.922-1.803.828-2.242 2.126-1.726 3.223.598 1.267 1.894 1.531 3.327.874 1.383-.635 2.332-1.871 2.671-3.509m1.59 3.242-.622-1.315c-.481 1.525-1.55 2.638-2.981 3.296-2.297 1.054-4.697.614-5.812-1.75-1.103-2.338.066-4.446 2.684-5.648 1.778-.816 3.67-.944 3.659-.969l-.62-1.315c-.897-1.9-2.618-2.237-4.494-1.376-1.852.85-2.248 2.752-2.236 2.776L76 34.61c-.025.011.576-2.666 3.268-3.901 2.988-1.372 5.641-.841 7.147 2.35L90 40.664l-1.778.816zM95.744 44l.334-5.295L88 27.412l2.02-.627 6.357 9.134.652-11.307L99 24l-1.334 19.404zm21.642-21.203c-2.698.1-4.273 2.254-4.16 4.932.114 2.679 1.865 4.709 4.564 4.609 2.725-.102 4.245-2.253 4.132-4.931s-1.81-4.71-4.536-4.61m.669 11.294c-1.854.068-3.41-.59-4.58-1.773l.28 6.607-2.017.075L111 21.552l1.962-.073.073 1.71c1.092-1.293 2.613-2.116 4.466-2.184 3.707-.138 6.34 2.729 6.492 6.325s-2.231 6.623-5.938 6.76"/><g transform="translate(127 16)"><mask id="j" fill="#fff"><use xlink:href="#i"/></mask><path fill="#3F4ECD" d="M.287 18.638 1.855.178l2.096.154-1.568 18.46z" mask="url(#j)"/></g><path fill="#3F4ECD" d="m142.118 33.19.3-1.596c-.005.026-1.495-.924-3.286-1.265-1.866-.356-2.94.426-3.158 1.584-.252 1.34.605 2.276 2.088 2.558 1.433.273 2.868-.174 4.056-1.28zm-.597 3.46.26-1.39c-1.235.937-2.692 1.22-4.175.937-2.379-.453-3.994-2.147-3.525-4.644.465-2.471 2.562-3.485 5.274-2.969 1.84.351 3.382 1.311 3.387 1.285l.261-1.39c.377-2.007-.769-3.239-2.712-3.609-1.918-.365-3.298.918-3.303.944l-1.077-1.458c-.026-.005 1.952-1.788 4.74-1.257 3.094.589 4.854 2.497 4.22 5.87L143.363 37l-1.841-.35zM146 43.304l3.27-4.117L148.982 25l2.023.73.089 11.367 6.931-8.83 1.975.712L147.926 44zm29.238-3.694c-2.184-1.427-4.724-.515-6.255 1.777-1.529 2.292-1.378 4.962.806 6.389 2.207 1.442 4.703.502 6.233-1.79 1.53-2.293 1.422-4.934-.784-6.375m-6.3 9.772c-1.5-.98-2.327-2.399-2.532-4.038L162.632 51 161 49.933 170.964 35l1.589 1.038-.976 1.462c1.64-.464 3.335-.297 4.835.683 3 1.96 3.34 5.82 1.286 8.898-2.054 3.079-5.759 4.263-8.76 2.302M177 53.766 189.448 40 191 41.234 178.552 55zm12.206 7.584 1.238-1.068c-.02.017-.716-1.555-2.044-2.824-1.385-1.324-2.789-1.32-3.688-.546-1.038.896-.877 2.103.223 3.154 1.063 1.015 2.57 1.475 4.27 1.284zm-2.638 2.345 1.078-.93a5.74 5.74 0 0 1-4.163-1.618c-1.766-1.686-2.112-3.905-.175-5.576 1.917-1.654 4.342-1.262 6.354.66 1.366 1.305 2.1 2.914 2.12 2.897l1.079-.93c1.558-1.344 1.33-2.941-.112-4.319-1.424-1.36-3.398-1.14-3.418-1.123l-.03-1.734c-.018-.018 2.776-.29 4.844 1.687 2.297 2.193 2.636 4.66.02 6.917L187.935 65zm.432 7.67 5.118-1.296L200.086 59l1.27 1.717-6.504 8.787 10.909-2.827L207 68.353 188.208 73zm26.795 14.745c-.943-2.38-3.566-3.092-6.18-2.126s-4.074 3.186-3.131 5.566c.952 2.404 3.556 3.068 6.17 2.102s4.094-3.138 3.141-5.542m-10.962 4.243c-.648-1.634-.485-3.238.32-4.665l-6.448 2.382-.705-1.779L213.029 80l.686 1.73-1.668.617c1.62.559 2.91 1.653 3.557 3.288 1.296 3.269-.716 6.547-4.226 7.844s-7.25.143-8.545-3.126M206 99.214 223.538 95l.462 1.786L206.462 101zm5.499 12.416 1.665-.217c-.027.004.414-1.701.157-3.498-.268-1.874-1.39-2.643-2.597-2.486-1.397.182-2.032 1.285-1.82 2.774.205 1.438 1.117 2.653 2.595 3.428zm-3.59.521 1.45-.189c-1.329-.873-2.087-2.16-2.3-3.649-.34-2.387.788-4.444 3.394-4.783 2.578-.337 4.265 1.326 4.653 4.048.264 1.848-.17 3.604-.143 3.6l1.45-.188c2.095-.274 2.925-1.742 2.647-3.693-.276-1.925-1.99-2.826-2.018-2.823l1.076-1.474c-.004-.026 2.398 1.283 2.798 4.081.443 3.106-.848 5.367-4.366 5.826L208.172 114l-.264-1.849zm-3.875 7.636 4.869 1.912L222 117l-.035 2.203-10.539 3.626 10.417 4.02-.034 2.151L204 121.884zm11.921 27.243c.666-2.503-1.021-4.591-3.708-5.29s-5.196.3-5.862 2.804c-.672 2.53 1.03 4.567 3.716 5.265s5.181-.249 5.854-2.778m-11.382-2.769c.457-1.72 1.55-2.95 3.054-3.668L201 138.872l.498-1.872L219 141.548l-.484 1.821-1.714-.445c.97 1.388 1.355 3.03.897 4.75-.914 3.44-4.501 4.995-8.11 4.057-3.607-.937-5.931-4.029-5.016-7.469M202.685 153 219 159.319l-.685 1.681L202 154.681zm-2.605 13.508 1.46.737c-.024-.012 1.35-1.13 2.224-2.701.91-1.64.475-2.866-.585-3.4-1.225-.619-2.394-.088-3.117 1.215-.699 1.257-.699 2.724.018 4.149m-3.182-1.549 1.272.643c-.538-1.422-.371-2.861.352-4.164 1.16-2.088 3.295-3.11 5.58-1.956 2.262 1.141 2.612 3.388 1.29 5.768-.898 1.617-2.297 2.78-2.274 2.791l1.272.642c1.838.928 3.381.212 4.33-1.495.935-1.684.105-3.34.081-3.351l1.743-.587c.013-.022 1.148 2.333-.212 4.78-1.509 2.718-3.896 3.813-6.982 2.256l-7.35-3.71zM190.193 168l2.8 4.185L206 175.84l-1.254 1.682-10.379-3.061 6.029 8.898-1.224 1.641L189 169.601zm-6.747 30.062c1.964-1.707 1.83-4.47.108-6.66-1.72-2.192-4.276-2.85-6.24-1.144-1.985 1.725-1.81 4.453-.09 6.644 1.722 2.19 4.238 2.884 6.222 1.16m-7.402-9.123c1.349-1.172 2.919-1.553 4.52-1.259l-4.247-5.404 1.469-1.276L189 195.272l-1.428 1.242-1.099-1.398c-.03 1.746-.67 3.355-2.018 4.527-2.699 2.345-6.426 1.51-8.738-1.43-2.312-2.943-2.372-6.929.327-9.274M169.555 194 179 209.92l-1.555 1.08L168 195.08zm-10.162 9.88.745 1.492c-.012-.024 1.807-.178 3.494-1.018 1.76-.876 2.158-2.186 1.617-3.269-.624-1.251-1.913-1.481-3.31-.785-1.35.672-2.254 1.933-2.546 3.58m-1.658-3.2.649 1.299c.435-1.538 1.46-2.68 2.858-3.376 2.241-1.115 4.625-.74 5.791 1.594 1.154 2.31.055 4.45-2.5 5.721-1.735.864-3.602 1.042-3.59 1.066l.649 1.3c.938 1.877 2.647 2.167 4.478 1.255 1.808-.9 2.148-2.81 2.135-2.835l1.794.519c.024-.012-.497 2.68-3.123 3.989-2.916 1.451-5.553.991-7.127-2.16l-3.749-7.51 1.735-.863zm-7.971-2.68-.2 5.28L158 214.295l-2.02.68-6.646-8.912-.363 11.274L147 218l.841-19.353zm-22.099 22.107c2.66-.175 4.151-2.47 3.964-5.27-.186-2.801-1.971-4.88-4.63-4.705-2.687.177-4.126 2.468-3.939 5.268.188 2.801 1.919 4.884 4.605 4.707m-.978-11.804c1.827-.12 3.381.528 4.568 1.736l-.462-6.908 1.988-.131L134 221.244l-1.934.127-.12-1.787c-1.04 1.38-2.518 2.282-4.345 2.402-3.653.241-6.331-2.69-6.582-6.451s2.015-6.991 5.668-7.232"/><g transform="translate(115 209)"><mask id="l" fill="#fff"><use xlink:href="#k"/></mask><path fill="#3F4ECD" d="m2.888.131-.862 17.87-1.749-.1L1.139.033z" mask="url(#l)"/></g><path fill="#3F4ECD" d="m103.767 209.803-.26 1.616c.004-.026 1.537.89 3.357 1.184 1.898.307 2.963-.51 3.152-1.683.218-1.355-.675-2.274-2.183-2.519-1.456-.235-2.894.255-4.066 1.402m.51-3.5-.226 1.407c1.224-.98 2.69-1.303 4.197-1.06 2.418.391 4.098 2.054 3.691 4.582-.403 2.501-2.496 3.58-5.252 3.134-1.872-.303-3.457-1.227-3.461-1.201l-.226 1.407c-.327 2.033.865 3.242 2.84 3.561 1.95.315 3.312-1.015 3.316-1.042l1.128 1.44c.027.004-1.925 1.854-4.759 1.396-3.145-.509-4.978-2.382-4.428-5.796l1.308-8.131zM100 200.64l-3.25 4.204.682 14.156-2.099-.672-.4-11.346-6.884 9.013L86 215.34 98.002 200zm-30.32 4.648c2.123 1.435 4.523.409 5.923-2.036 1.4-2.446 1.186-5.239-.936-6.673-2.143-1.449-4.5-.394-5.9 2.051s-1.23 5.21.914 6.658m5.756-10.417c1.458.985 2.285 2.448 2.523 4.16L81.414 193 83 194.072 73.88 210l-1.543-1.043.893-1.56c-1.553.533-3.175.405-4.632-.58-2.915-1.97-3.34-6.004-1.46-9.288 1.88-3.283 5.385-4.628 8.3-2.658M68 189.251 56.513 204 55 202.749 66.487 188zm-12.33-5.581-1.212 1.094c.02-.018.766 1.533 2.137 2.765 1.43 1.286 2.84 1.248 3.718.454 1.015-.919.818-2.117-.318-3.138-1.097-.986-2.624-1.407-4.325-1.176zm2.578-2.402-1.055.953a5.82 5.82 0 0 1 4.228 1.51c1.822 1.638 2.236 3.842.342 5.555-1.875 1.695-4.321 1.363-6.398-.503-1.41-1.268-2.196-2.853-2.215-2.836l-1.055.954c-1.524 1.377-1.247 2.964.242 4.302 1.47 1.32 3.445 1.053 3.464 1.035l.082 1.728c.02.018-2.778.357-4.913-1.562-2.371-2.13-2.786-4.58-.227-6.894l6.094-5.51zM58 172.681l-5.103 1.498L45.209 186l-1.324-1.767 6.282-9.388-10.875 3.258L38 176.378 56.74 171zm-27.754-13.719c1.008 2.335 3.645 2.973 6.227 1.948 2.581-1.026 3.977-3.266 2.969-5.6-1.018-2.36-3.635-2.95-6.217-1.924-2.582 1.025-3.997 3.217-2.98 5.576m10.822-4.492c.693 1.604.574 3.199-.189 4.634l6.369-2.529.753 1.745L31.182 165l-.734-1.698 1.648-.655c-1.633-.511-2.95-1.563-3.642-3.167-1.385-3.207.53-6.51 3.997-7.887 3.468-1.377 7.232-.33 8.616 2.877M38 145.927 20.515 151 20 149.073 37.485 144zM32.39 133.4l-1.656.254c.027-.004-.365 1.673-.058 3.422.32 1.825 1.462 2.547 2.664 2.363 1.389-.214 1.992-1.307 1.738-2.757-.246-1.4-1.19-2.563-2.688-3.283zm3.57-.6-1.443.22c1.351.82 2.144 2.059 2.399 3.508.407 2.325-.66 4.362-3.252 4.76-2.564.394-4.295-1.188-4.76-3.837-.315-1.8.067-3.526.04-3.522l-1.441.221c-2.084.32-2.87 1.776-2.537 3.675.329 1.875 2.066 2.712 2.093 2.707L26.028 142c.003.025-2.431-1.192-2.91-3.916-.53-3.025.695-5.266 4.194-5.804l8.332-1.28zm4.04-7.184-4.911-1.749L22.198 129l-.037-2.203 10.378-3.975-10.503-3.672L22 117l17.965 6.519z"/></g></g></svg>