<svg xmlns="http://www.w3.org/2000/svg" width="341" height="435"><g fill="none" fill-rule="evenodd"><g fill="#FFD458" fill-rule="nonzero"><path d="M133.8 434.6c42.6 0 84.6-18 114.6-49.2L282 428h56.4l-58.8-76.8c30-42 49.2-86.4 60.6-135H294c-7.8 31.8-22.2 68.4-42.6 99.6l-88.8-114.6 28.2-16.2c31.8-18 61.2-49.2 61.2-90.6C252 42.2 215.4.8 151.8.8S50.4 38 50.4 90.2c0 34.8 12.6 56.4 45.6 98.4L74.4 200C23.4 227 .6 267.2.6 314.6c0 49.2 34.2 120 133.2 120m2.4-266.4-11.4-14.4a408 408 0 0 1-2.792-3.583l-.922-1.203C106.988 130.54 94.8 110.624 94.8 90.2c0-29.4 21-48.6 55.2-48.6s57.6 21.6 57.6 52.2c0 29.4-25.8 49.2-48.6 61.8zm-1.8 225.6C76.2 393.8 45 353 45 314.6s21.6-63 68.4-87.6l9-4.8 100.2 129.6c-28.2 31.2-63 42-88.2 42"/></g></g></svg>