<svg xmlns="http://www.w3.org/2000/svg" xmlns:xlink="http://www.w3.org/1999/xlink" width="26" height="26"><defs><path id="a" d="M0 0h26v26H0z"/></defs><g fill="none" fill-rule="evenodd"><g><g><mask id="b" fill="#fff"><use xlink:href="#a"/></mask><path fill="#FFF" d="M23.398 5.853c0 .386-.26.647-.648.647h-2.603c-.387 0-.647-.26-.647-.647V3.25c0-.387.26-.647.647-.647h2.603c.387 0 .648.26.648.647zM3.25 23.397c-.387 0-.648-.26-.648-.647V11.7h2.731c-.134.393-.134.914-.134 1.3 0 4.293 3.51 7.803 7.8 7.803 4.292 0 7.802-3.51 7.802-7.803 0-.386 0-.907-.133-1.3h2.73v11.05c0 .387-.26.647-.648.647zM13 7.801a5.21 5.21 0 0 1 5.199 5.198 5.21 5.21 0 0 1-5.2 5.2c-2.861 0-5.197-2.337-5.197-5.2S10.138 7.801 13 7.801M23.398 0H2.602A2.605 2.605 0 0 0 0 2.603v20.794A2.607 2.607 0 0 0 2.602 26h20.796A2.606 2.606 0 0 0 26 23.397V2.603A2.605 2.605 0 0 0 23.398 0" mask="url(#b)"/></g></g></g></svg>