<svg xmlns="http://www.w3.org/2000/svg" width="20" height="18"><g fill="none" fill-rule="evenodd"><g fill="#F9CA47" fill-rule="nonzero"><g><path d="M12.56 8.237c-.168-.822-1.092-1.75-2.373-1.75-1.566 0-2.658.567-2.942 1.797s-1.044 2.603-2.279 3.454-2.658 2.27-1.376 4.542c1.282 2.27 2.705 1.561 3.465 1.372.76-.19 1.851-.9 3.892-.52 2.041.378 2.136 1.371 4.224.472 2.089-.9 2.075-4.338.76-5.234-1.899-1.294-2.944-2.051-3.37-4.133zM3.652 7.18c-.046-.104-1.55-2.365-2.784-1.451-1.235.914-1.234 4.005.537 4.888 1.771.884 3.576-.44 2.247-3.437M7.703.083C6.216-.263 4.95.462 4.887 2.48 4.824 4.5 5.963 5.578 7.102 5.512c1.14-.067 1.761-1.74 1.772-2.527.002-.13.316-2.554-1.171-2.902m4.525.158c1.329-.535 2.342.473 2.753 1.356s.032 3.06-.791 3.501c-.823.442-2.247.568-2.88-1.608-.1-.346-.411-2.713.918-3.249m3.987 8.169c.031-.605.95-2.617 2.563-2.365s1.17 2.271.886 2.996-.506 1.735-1.962 1.64c-1.456-.094-1.55-1.04-1.487-2.27z"/></g></g></g></svg>