<svg xmlns="http://www.w3.org/2000/svg" xmlns:xlink="http://www.w3.org/1999/xlink" width="61" height="59"><defs><path id="a" d="M.024.005h30.898v25.931H.024z"/><path id="c" d="M0 .004h8.95v11.957H0z"/><path id="e" d="M.003.063h8.983v11.921H.003z"/><path id="g" d="M.036.02h8.912v10.948H.036z"/></defs><g fill="none" fill-rule="evenodd"><g transform="rotate(27 -27.692 51.283)"><mask id="b" fill="#fff"><use xlink:href="#a"/></mask><path fill="#4250C6" d="M21.304 3.957c-.378-1.854-2.452-3.952-5.33-3.952-3.518 0-5.97 1.281-6.61 4.06-.64 2.777-2.345 5.875-5.117 7.798s-5.97 5.128-3.091 10.256 6.076 3.525 7.782 3.098 4.158-2.03 8.742-1.175 4.797 3.098 9.488 1.068 4.66-9.794 1.705-11.82c-4.264-2.923-6.61-4.632-7.569-9.333" mask="url(#b)"/></g><g transform="rotate(27 -20.948 35.618)"><mask id="d" fill="#fff"><use xlink:href="#c"/></mask><path fill="#4250C6" d="M7.95 3.715C7.848 3.484 4.573-1.547 1.887.488s-2.685 8.91 1.172 10.874 7.783-.982 4.89-7.647" mask="url(#d)"/></g><g transform="rotate(27 2.13 67.523)"><mask id="f" fill="#fff"><use xlink:href="#e"/></mask><path fill="#4250C6" d="M8.922 6.516c.004-.281.707-5.523-2.618-6.273S.15 1.061.008 5.425c-.141 4.364 2.406 6.697 4.952 6.553 2.547-.144 3.936-3.761 3.962-5.462" mask="url(#f)"/></g><path fill="#4250C6" d="M39.651 18.766c.123-.746 1.734-5.47 4.946-5.09s4.315 3.307 4.315 5.376c0 2.068-2.835 5.722-4.927 5.69-2.092-.03-5.108-1.272-4.334-5.976"/><g transform="rotate(27 -38.27 109.763)"><mask id="h" fill="#fff"><use xlink:href="#g"/></mask><path fill="#4250C6" d="M.07 5.623C.144 4.201 2.33-.522 6.173.07c3.843.593 2.788 5.331 2.11 7.034s-1.205 4.072-4.672 3.85S-.08 8.51.07 5.624" mask="url(#h)"/></g></g></svg>