<svg xmlns="http://www.w3.org/2000/svg" xmlns:xlink="http://www.w3.org/1999/xlink" width="27" height="26"><defs><path id="a" d="M0 0h27v26H0z"/></defs><g fill="none" fill-rule="evenodd"><g><g><mask id="b" fill="#fff"><use xlink:href="#a"/></mask><path fill="#FFF" d="M.344 26H6.13V8.457H.344zM3.275 0C1.295 0 0 1.31 0 3.03c0 1.685 1.258 3.033 3.2 3.033h.037c2.019 0 3.274-1.348 3.274-3.033C6.473 1.31 5.256 0 3.275 0M27 15.94V26h-5.788v-9.386c0-2.357-.836-3.967-2.932-3.967-1.599 0-2.549 1.084-2.969 2.133-.152.376-.191.896-.191 1.422V26H9.33s.079-15.898 0-17.544h5.79v2.486q-.02.03-.04.058h.04v-.058c.769-1.192 2.14-2.898 5.216-2.898 3.81 0 6.664 2.508 6.664 7.895z" mask="url(#b)"/></g></g></g></svg>